<?xml version="1.0" encoding="UTF-8" standalone="no"?>
<!-- Created with Inkscape (http://www.inkscape.org/) -->

<svg
   width="210mm"
   height="297mm"
   viewBox="0 0 210 297"
   version="1.1"
   id="svg1"
   inkscape:version="1.3.2 (091e20ef0f, 2023-11-25, custom)"
   sodipodi:docname="dibujo-2.svg"
   inkscape:export-filename="dibujo-2.pdf"
   inkscape:export-xdpi="87.659935"
   inkscape:export-ydpi="87.659935"
   xmlns:inkscape="http://www.inkscape.org/namespaces/inkscape"
   xmlns:sodipodi="http://sodipodi.sourceforge.net/DTD/sodipodi-0.dtd"
   xmlns="http://www.w3.org/2000/svg"
   xmlns:svg="http://www.w3.org/2000/svg">
  <sodipodi:namedview
     id="namedview1"
     pagecolor="#ffffff"
     bordercolor="#cccccc"
     borderopacity="1"
     inkscape:showpageshadow="0"
     inkscape:pageopacity="1"
     inkscape:pagecheckerboard="0"
     inkscape:deskcolor="#d1d1d1"
     inkscape:document-units="mm"
     inkscape:zoom="0.39394328"
     inkscape:cx="526.72557"
     inkscape:cy="543.22541"
     inkscape:window-width="1360"
     inkscape:window-height="709"
     inkscape:window-x="768"
     inkscape:window-y="932"
     inkscape:window-maximized="1"
     inkscape:current-layer="layer1"
     showguides="true">
    <sodipodi:guide
       position="267.74742,33.909701"
       orientation="1,0"
       id="guide61"
       inkscape:locked="false" />
  </sodipodi:namedview>
  <defs
     id="defs1">
    <rect
       x="449.42973"
       y="582.54595"
       width="50.627621"
       height="21.445391"
       id="rect35" />
    <inkscape:path-effect
       effect="bspline"
       id="path-effect19"
       is_visible="true"
       lpeversion="1.3"
       weight="33.333333"
       steps="2"
       helper_size="0"
       apply_no_weight="true"
       apply_with_weight="true"
       only_selected="false"
       uniform="false" />
    <inkscape:path-effect
       effect="bspline"
       id="path-effect18"
       is_visible="true"
       lpeversion="1.3"
       weight="33.333333"
       steps="2"
       helper_size="0"
       apply_no_weight="true"
       apply_with_weight="true"
       only_selected="false"
       uniform="false" />
    <inkscape:path-effect
       effect="bspline"
       id="path-effect17"
       is_visible="true"
       lpeversion="1.3"
       weight="33.333333"
       steps="2"
       helper_size="0"
       apply_no_weight="true"
       apply_with_weight="true"
       only_selected="false"
       uniform="false" />
    <marker
       style="overflow:visible"
       id="ArrowWideHeavy"
       refX="0"
       refY="0"
       orient="auto"
       inkscape:stockid="Wide, heavy arrow"
       markerWidth="1"
       markerHeight="1"
       viewBox="0 0 1 1"
       inkscape:isstock="true"
       inkscape:collect="always"
       preserveAspectRatio="xMidYMid">
      <path
         style="fill:context-stroke;fill-rule:evenodd;stroke:none"
         d="m 1,0 -3,3 h -2 l 3,-3 -3,-3 h 2 z"
         id="path3" />
    </marker>
    <inkscape:path-effect
       effect="bspline"
       id="path-effect14"
       is_visible="true"
       lpeversion="1.3"
       weight="33.333333"
       steps="2"
       helper_size="0"
       apply_no_weight="true"
       apply_with_weight="true"
       only_selected="false"
       uniform="false" />
    <inkscape:path-effect
       effect="bspline"
       id="path-effect7"
       is_visible="true"
       lpeversion="1.3"
       weight="33.333333"
       steps="2"
       helper_size="0"
       apply_no_weight="true"
       apply_with_weight="true"
       only_selected="false"
       uniform="false" />
    <inkscape:path-effect
       effect="bspline"
       id="path-effect6"
       is_visible="true"
       lpeversion="1.3"
       weight="33.333333"
       steps="2"
       helper_size="0"
       apply_no_weight="true"
       apply_with_weight="true"
       only_selected="false"
       uniform="false" />
    <inkscape:path-effect
       effect="spiro"
       id="path-effect1"
       is_visible="true"
       lpeversion="1" />
  </defs>
  <g
     inkscape:label="Capa 1"
     inkscape:groupmode="layer"
     id="layer1">
    <path
       style="fill:none;stroke:#000000;stroke-width:1;stroke-linecap:round;stroke-linejoin:bevel;stroke-dasharray:none;paint-order:markers stroke fill"
       d="m 15.596248,174.07664 c -2.837811,-1.79198 -5.201679,-4.32727 -6.7909328,-7.28339 -0.8539255,-1.58836 -1.4866458,-3.29428 -1.8899835,-5.05195 -1.17585,-5.12412 -0.3543626,-10.59816 1.8099348,-15.3893 2.1642975,-4.79115 5.6140835,-8.92902 9.6089715,-12.34664 1.54295,-1.31999 3.186372,-2.54985 5.028743,-3.4035 1.842372,-0.85366 3.904325,-1.31722 5.917734,-1.05406 2.265075,0.29605 4.320667,1.48105 6.142359,2.85932 1.821692,1.37828 3.477641,2.97188 5.35535,4.27281 5.833691,4.04174 13.54383,4.91661 20.396594,3.07073 4.646739,-1.25166 8.89985,-3.64268 12.986665,-6.1837 4.086815,-2.54102 8.083049,-5.26606 12.450043,-7.28799 9.521344,-4.4084 20.506094,-5.24232 30.791764,-3.16988 1.12955,0.22759 2.25239,0.48895 3.38635,0.69342 2.85343,0.51452 5.7757,0.66575 8.6626,0.39622 5.87492,-0.54851 11.43003,-2.80381 17.0396,-4.63361 5.60957,-1.82981 11.58909,-3.26032 17.37479,-2.10224 1.88504,0.37732 3.71271,1.02559 5.43381,1.88207 3.58264,1.78284 6.67791,4.45424 9.24615,7.52311 2.56824,3.06887 4.6281,6.5336 6.42542,10.109 2.79029,5.55071 4.98781,11.46639 5.74882,17.63218 0.94616,7.66596 -0.36654,15.49105 -2.91378,22.78308 -0.93233,2.66899 -2.03304,5.28883 -3.46508,7.72645 -2.65415,4.5179 -6.44779,8.3616 -10.93523,11.06694 -4.48743,2.70534 -9.65998,4.26602 -14.89524,4.485 -4.99601,0.20898 -9.98608,-0.7861 -14.72651,-2.37738 -1.54725,-0.51938 -3.09476,-1.1139 -4.41007,-2.08018 -1.30497,-0.95868 -2.32695,-2.24233 -3.38628,-3.46701 -1.78565,-2.06436 -3.75438,-4.02758 -6.14264,-5.34908 -4.17138,-2.30815 -9.21673,-2.4374 -13.939,-1.78305 -6.31883,0.87557 -12.53431,3.10608 -17.56155,7.03304 -2.934625,2.29234 -5.441173,5.13455 -8.583864,7.13213 -4.248624,2.70055 -9.520986,3.67868 -14.490295,2.87262 -1.805255,-0.29283 -3.566076,-0.80891 -5.355066,-1.18866 -1.34202,-0.28487 -2.703301,-0.49382 -4.016314,-0.89152 -2.453808,-0.74323 -4.666514,-2.12383 -6.726912,-3.64971 -2.060398,-1.52589 -4.001481,-3.21175 -6.109549,-4.67107 -7.459067,-5.16357 -16.555102,-7.21962 -25.279228,-9.70755 -1.746789,-0.49815 -3.497797,-1.02153 -5.123898,-1.83099 -1.626102,-0.80945 -3.135088,-1.92542 -4.168743,-3.41907 -0.431405,-0.62339 -0.776175,-1.3059 -1.241652,-1.90427 -0.232739,-0.29919 -0.496151,-0.57706 -0.801911,-0.80109 -0.305759,-0.22404 -0.655438,-0.39334 -1.02776,-0.46445 -0.03372,-0.006 -0.06759,-0.0121 -0.101579,-0.0169"
       id="path1"
       inkscape:original-d="m 15.596248,174.07664 c 78.257563,61.54514 -4.993139,-4.56979 -6.7909328,-7.28339 -0.948426,-1.43156 -1.417825,-3.43997 -1.8899835,-5.05195 -3.0980025,-10.57682 2.4947694,-21.94242 11.4189063,-27.73594 4.070682,-2.64267 5.885949,-4.8819 10.946477,-4.45756 5.212268,0.43707 7.376432,4.54041 11.497709,7.13213 4.934307,3.10301 14.786867,4.18484 20.396594,3.07073 9.710574,-1.92857 16.13117,-10.82857 25.436708,-13.47169 8.251952,-2.34386 22.196974,-3.77066 30.791764,-3.16988 1.15291,0.0806 2.25619,0.50388 3.38635,0.69342 2.73967,0.45946 5.88021,0.51283 8.6626,0.39622 11.42394,-0.47882 23.5282,-7.68017 34.41439,-6.73585 1.92926,0.16735 3.72479,1.06998 5.43381,1.88207 8.59543,4.0844 11.65243,9.20636 15.67157,17.63211 2.79705,5.86378 4.89005,11.15143 5.74882,17.63218 1.03746,7.8293 -0.83598,15.31594 -2.91378,22.78308 -0.79992,2.87471 -2.1168,5.10547 -3.46508,7.72645 -5.69544,11.07156 -13.40157,15.32196 -25.83047,15.55194 -4.87197,0.0901 -10.28857,-0.0271 -14.72651,-2.37738 -1.38939,-0.73582 -3.13153,-1.20904 -4.41007,-2.08018 -1.30453,-0.88884 -2.18158,-2.48205 -3.38628,-3.46701 -2.08602,-1.70553 -3.98917,-3.72379 -6.14264,-5.34908 -3.0401,-2.29445 -10.26578,-2.22307 -13.939,-1.78305 -6.11787,0.73288 -12.59605,3.40638 -17.56155,7.03304 -3.055816,2.23189 -5.187098,5.34039 -8.583864,7.13213 -4.148404,2.18823 -9.844899,2.87262 -14.490295,2.87262 -2.072224,0 -3.434548,-0.63118 -5.355066,-1.18866 -1.294399,-0.37573 -2.764416,-0.36658 -4.016314,-0.89152 -4.684911,-1.96446 -8.644056,-5.53761 -12.836461,-8.32078 -7.520644,-4.99265 -16.510675,-8.0108 -25.279228,-9.70755 -3.787505,-0.7329 -6.296594,-2.98898 -9.292641,-5.25006 -0.596853,-0.45043 -2.862312,-5.2072 -3.071323,-3.16981 -0.117659,1.1469 -0.364084,-1.13951 -0.101579,-0.0169"
       inkscape:path-effect="#path-effect1"
       sodipodi:nodetypes="cssssssssscsssssssssssssssssssssc"
       transform="translate(-1.3113541,-0.73128611)" />
    <g
       id="g7"
       transform="translate(-7.3512765,-7.8352497)">
      <path
         style="fill:none;stroke:#000000;stroke-width:0.565;stroke-linecap:butt;stroke-linejoin:miter;stroke-dasharray:none;stroke-opacity:1"
         d="m 23.394785,156.16386 c 3.524826,2.92554 7.049585,5.85103 10.697621,6.98178 3.648036,1.13075 7.418902,0.4667 10.457042,-0.68996 3.038139,-1.15666 5.342986,-2.80574 7.647924,-4.45488"
         id="path6"
         inkscape:path-effect="#path-effect6"
         inkscape:original-d="m 23.394785,156.16386 c 3.524827,2.92554 7.049583,5.85103 10.574483,8.77663 3.771175,-0.6641 7.542041,-1.32815 11.31329,-1.99227 2.305032,-1.6492 6.914814,-4.94742 6.914814,-4.94742"
         sodipodi:nodetypes="cccc" />
      <path
         style="fill:none;stroke:#000000;stroke-width:0.565;stroke-linecap:butt;stroke-linejoin:miter;stroke-dasharray:none;stroke-opacity:1"
         d="m 26.468707,158.76742 c 4.137844,-1.90501 8.275605,-3.80998 12.129554,-3.62855 3.853948,0.18143 7.423772,2.44925 10.993664,4.71711"
         id="path7"
         inkscape:path-effect="#path-effect7"
         inkscape:original-d="m 26.468707,158.76742 c 4.137844,-1.90501 8.275606,-3.80998 12.413535,-5.71503 3.569967,2.26791 7.13979,4.53573 10.709683,6.80359"
         sodipodi:nodetypes="ccc" />
    </g>
    <g
       id="g9"
       transform="translate(45.031173,-10.628894)">
      <path
         style="fill:none;stroke:#000000;stroke-width:0.565;stroke-linecap:butt;stroke-linejoin:miter;stroke-dasharray:none;stroke-opacity:1"
         d="m 23.394785,156.16386 c 3.524826,2.92554 7.049585,5.85103 10.697621,6.98178 3.648036,1.13075 7.418902,0.4667 10.457042,-0.68996 3.038139,-1.15666 5.342986,-2.80574 7.647924,-4.45488"
         id="path8"
         inkscape:path-effect="#path-effect6"
         inkscape:original-d="m 23.394785,156.16386 c 3.524827,2.92554 7.049583,5.85103 10.574483,8.77663 3.771175,-0.6641 7.542041,-1.32815 11.31329,-1.99227 2.305032,-1.6492 6.914814,-4.94742 6.914814,-4.94742"
         sodipodi:nodetypes="cccc" />
      <path
         style="fill:none;stroke:#000000;stroke-width:0.565;stroke-linecap:butt;stroke-linejoin:miter;stroke-dasharray:none;stroke-opacity:1"
         d="m 26.468707,158.76742 c 4.137844,-1.90501 8.275605,-3.80998 12.129554,-3.62855 3.853948,0.18143 7.423772,2.44925 10.993664,4.71711"
         id="path9"
         inkscape:path-effect="#path-effect7"
         inkscape:original-d="m 26.468707,158.76742 c 4.137844,-1.90501 8.275606,-3.80998 12.413535,-5.71503 3.569967,2.26791 7.13979,4.53573 10.709683,6.80359"
         sodipodi:nodetypes="ccc" />
    </g>
    <g
       id="g13"
       transform="translate(123.06193,-16.426815)">
      <path
         style="fill:none;stroke:#000000;stroke-width:0.565;stroke-linecap:butt;stroke-linejoin:miter;stroke-dasharray:none;stroke-opacity:1"
         d="m 23.394785,156.16386 c 3.524826,2.92554 7.049585,5.85103 10.697621,6.98178 3.648036,1.13075 7.418902,0.4667 10.457042,-0.68996 3.038139,-1.15666 5.342986,-2.80574 7.647924,-4.45488"
         id="path12"
         inkscape:path-effect="#path-effect6"
         inkscape:original-d="m 23.394785,156.16386 c 3.524827,2.92554 7.049583,5.85103 10.574483,8.77663 3.771175,-0.6641 7.542041,-1.32815 11.31329,-1.99227 2.305032,-1.6492 6.914814,-4.94742 6.914814,-4.94742"
         sodipodi:nodetypes="cccc" />
      <path
         style="fill:none;stroke:#000000;stroke-width:0.565;stroke-linecap:butt;stroke-linejoin:miter;stroke-dasharray:none;stroke-opacity:1"
         d="m 26.468707,158.76742 c 4.137844,-1.90501 8.275605,-3.80998 12.129554,-3.62855 3.853948,0.18143 7.423772,2.44925 10.993664,4.71711"
         id="path13"
         inkscape:path-effect="#path-effect7"
         inkscape:original-d="m 26.468707,158.76742 c 4.137844,-1.90501 8.275606,-3.80998 12.413535,-5.71503 3.569967,2.26791 7.13979,4.53573 10.709683,6.80359"
         sodipodi:nodetypes="ccc" />
    </g>
    <path
       style="fill:none;stroke:#000000;stroke-width:0.264583px;stroke-linecap:butt;stroke-linejoin:miter;stroke-opacity:1;marker-start:url(#ArrowWideHeavy);marker-mid:url(#ArrowWideHeavy)"
       d="m 17.703909,145.96075 c 2.735451,-1.2232 5.906303,-2.85388 11.315432,-2.00987 5.409129,0.84401 13.056539,4.16271 16.116225,8.53727 3.059687,4.37456 1.531711,9.80477 -2.447785,12.5794 -3.979496,2.77463 -10.410229,2.89357 -17.712572,1.55249 -7.302343,-1.34109 -15.4758368,-4.14209 -18.0555638,-7.35288 -2.5797269,-3.21078 0.4344845,-6.83127 3.0916228,-9.04938 2.657138,-2.21811 4.957189,-3.03383 7.692641,-4.25703 z"
       id="path14"
       inkscape:path-effect="#path-effect14"
       inkscape:original-d="m 17.26851,146.36823 c 3.17085,-1.63068 6.341702,-3.26136 9.512551,-4.89204 7.647409,3.3187 15.294819,6.6374 22.942227,9.9561 -1.528035,5.43042 -3.056009,10.86063 -4.584015,16.29094 -6.430988,0.11895 -12.861721,0.2379 -19.292581,0.35684 -8.173825,-2.80112 -16.347321,-5.60212 -24.5209939,-8.40319 3.0142203,-3.6205 6.0284313,-7.24099 9.0426519,-10.86149 2.300056,-0.81572 4.600107,-1.63144 6.90016,-2.44716 z"
       sodipodi:nodetypes="cscccscc"
       transform="rotate(168.12375,55.994406,154.26567)" />
    <path
       style="fill:none;stroke:#000000;stroke-width:0.264583px;stroke-linecap:butt;stroke-linejoin:miter;stroke-opacity:1;marker-start:url(#ArrowWideHeavy);marker-mid:url(#ArrowWideHeavy)"
       d="m 18.247702,146.32867 c 2.191658,-1.59112 5.36251,-3.2218 10.771639,-2.37779 5.409129,0.84401 13.056539,4.16271 16.116225,8.53727 3.059687,4.37456 1.531711,9.80477 -2.227557,12.22206 -3.759268,2.41728 -9.749446,1.82159 -15.824367,0.38618 -6.074922,-1.4354 -12.233985,-3.71038 -14.49014,-6.19591 -2.256154,-2.48553 -0.609278,-5.18154 0.820399,-7.30534 1.429677,-2.12379 2.642143,-3.67535 4.833801,-5.26647 z"
       id="path16"
       inkscape:path-effect="#path-effect14"
       inkscape:original-d="m 17.26851,146.36823 c 3.17085,-1.63068 6.341702,-3.26136 9.512551,-4.89204 7.647409,3.3187 15.294819,6.6374 22.942227,9.9561 -1.528035,5.43042 -3.056009,10.86063 -4.584015,16.29094 -5.990533,-0.59573 -11.98071,-1.19143 -17.971242,-1.78717 -6.159311,-2.27507 -12.318374,-4.55005 -18.477571,-6.82508 1.646886,-2.69603 3.293766,-5.39204 4.940652,-8.08807 1.212466,-1.55156 2.424932,-3.10312 3.637398,-4.65468 z"
       sodipodi:nodetypes="cscccscc"
       transform="rotate(168.12375,95.776403,155.88112)" />
    <path
       style="fill:none;stroke:#000000;stroke-width:0.264583px;stroke-linecap:butt;stroke-linejoin:miter;stroke-opacity:1;marker-start:url(#ArrowWideHeavy);marker-mid:url(#ArrowWideHeavy)"
       d="m 18.247702,146.32867 c 2.191658,-1.59112 5.36251,-3.2218 10.771639,-2.37779 5.409129,0.84401 13.056539,4.16271 16.116225,8.53727 3.059687,4.37456 1.531711,9.80477 -2.447785,12.5794 -3.979496,2.77463 -10.410229,2.89357 -16.068367,1.66475 -5.658138,-1.22881 -10.543363,-3.8053 -12.579292,-6.64816 -2.035929,-2.84286 -1.222471,-5.95204 -0.209507,-8.28242 1.012963,-2.33037 2.225429,-3.88193 4.417087,-5.47305 z"
       id="path15"
       inkscape:path-effect="#path-effect14"
       inkscape:original-d="m 17.26851,146.36823 c 3.17085,-1.63068 6.341702,-3.26136 9.512551,-4.89204 7.647409,3.3187 15.294819,6.6374 22.942227,9.9561 -1.528035,5.43042 -3.056009,10.86063 -4.584015,16.29094 -6.430988,0.11895 -12.861721,0.2379 -19.292581,0.35684 -4.885418,-2.57658 -9.77064,-5.15307 -14.65596,-7.7296 0.81346,-3.10919 1.626919,-6.21837 2.44038,-9.32756 1.212467,-1.55156 2.424932,-3.10312 3.637398,-4.65468 z"
       sodipodi:nodetypes="cscccscc"
       transform="rotate(-168.03229,29.935575,153.53622)" />
    <path
       style="fill:none;stroke:#000000;stroke-width:0.264583px;stroke-linecap:butt;stroke-linejoin:miter;stroke-opacity:1;marker-mid:url(#ArrowWideHeavy)"
       d="m 32.249872,147.35199 c -0.9754,-2.85601 -1.950784,-5.71197 -1.103902,-7.77901 0.846882,-2.06704 3.515955,-3.34498 6.185084,-4.62295"
       id="path17"
       inkscape:path-effect="#path-effect17"
       inkscape:original-d="m 32.249872,147.35199 c -0.975401,-2.85601 -1.950784,-5.71197 -2.926208,-8.56805 2.669187,-1.278 5.338261,-2.55594 8.00739,-3.83391"
       sodipodi:nodetypes="ccc" />
    <path
       style="fill:none;stroke:#000000;stroke-width:0.264583px;stroke-linecap:butt;stroke-linejoin:miter;stroke-opacity:1;marker-mid:url(#ArrowWideHeavy)"
       d="m 70.244161,134.4883 c 2.464771,0.98036 4.929489,1.9607 6.229508,3.76916 1.300018,1.80846 1.435225,4.44488 1.570436,7.08137"
       id="path18"
       inkscape:path-effect="#path-effect18"
       inkscape:original-d="m 70.244161,134.4883 c 2.464771,0.98036 4.929489,1.9607 7.394313,2.94108 0.135213,2.63654 0.27042,5.27296 0.405631,7.90945"
       sodipodi:nodetypes="ccc" />
    <path
       style="fill:none;stroke:#000000;stroke-width:0.264583px;stroke-linecap:butt;stroke-linejoin:miter;stroke-dasharray:0.793749, 0.793749;stroke-dashoffset:0;stroke-opacity:1"
       d="m 70.343767,134.60037 c 2.026499,2.10767 4.052958,4.2153 4.554186,6.34706 0.501227,2.13176 -0.522817,4.28749 -1.546882,6.44326"
       id="path20"
       inkscape:path-effect="#path-effect18"
       inkscape:original-d="m 70.343767,134.60037 c 2.026499,2.10767 4.052956,4.2153 6.079497,6.32301 -1.024085,2.15581 -2.048127,4.31154 -3.072193,6.46731"
       sodipodi:nodetypes="ccc"
       transform="rotate(153.05516,72.388112,141.04388)" />
    <path
       style="fill:none;stroke:#000000;stroke-width:0.264583px;stroke-linecap:butt;stroke-linejoin:miter;stroke-dasharray:0.793749, 0.793749;stroke-dashoffset:0;stroke-opacity:1"
       d="m 68.669399,134.21569 c 2.584623,2.2359 5.169193,4.47175 5.674051,7.03427 0.504858,2.56252 -1.070033,5.4515 -2.644961,8.34055"
       id="path22"
       inkscape:path-effect="#path-effect18"
       inkscape:original-d="m 68.669399,134.21569 c 2.584621,2.2359 5.169192,4.47175 7.753865,6.70769 -1.574956,2.8891 -3.14985,5.77808 -4.724775,8.66713"
       sodipodi:nodetypes="ccc"
       transform="rotate(57.657437,128.06346,233.00642)" />
    <path
       style="fill:none;stroke:#000000;stroke-width:0.264583px;stroke-linecap:butt;stroke-linejoin:miter;stroke-dasharray:0.793749, 0.793749;stroke-dashoffset:0;stroke-opacity:1"
       d="m 69.463585,135.06033 c 1.420244,2.69402 2.840457,5.38798 2.752416,7.5954 -0.08804,2.20742 -1.684323,3.9281 -3.280645,5.64882"
       id="path21"
       inkscape:path-effect="#path-effect18"
       inkscape:original-d="m 69.463585,135.06033 c 1.420243,2.69402 2.840457,5.38798 4.260733,8.08206 -1.596357,1.72076 -3.192639,3.44144 -4.788962,5.16216"
       sodipodi:nodetypes="ccc"
       transform="rotate(14.281483,54.641226,8.881669)" />
    <path
       style="fill:none;stroke:#000000;stroke-width:0.264583px;stroke-linecap:butt;stroke-linejoin:miter;stroke-opacity:1;marker-mid:url(#ArrowWideHeavy)"
       d="m 166.47159,139.54668 c 0.40141,-3.46643 0.80281,-6.93287 2.86842,-8.74742 2.0656,-1.81455 5.79525,-1.97721 9.52497,-2.13987"
       id="path19"
       inkscape:path-effect="#path-effect19"
       inkscape:original-d="m 166.47159,139.54668 c 0.4014,-3.46643 0.80281,-6.93287 1.20422,-10.3993 3.7298,-0.16267 7.45945,-0.32533 11.18917,-0.48799" />
    <g
       inkscape:label=""
       transform="translate(121.88908,154.89175)"
       id="g35">
      <g
         fill="#000000"
         fill-opacity="1"
         id="g30"
         transform="matrix(0.352778,0,0,0.352778,-1.23225,-0.703483)">
        <g
           id="g29"
           transform="translate(1.993,3.6659999)">
          <path
             d="m 3.171875,-0.828125 c 0,-0.5 -0.421875,-0.84375 -0.828125,-0.84375 C 1.84375,-1.671875 1.5,-1.25 1.5,-0.84375 1.5,-0.34375 1.90625,0 2.328125,0 c 0.5,0 0.84375,-0.40625 0.84375,-0.828125 z m 0,0"
             id="path29" />
        </g>
      </g>
      <g
         fill="#000000"
         fill-opacity="1"
         id="g32"
         transform="matrix(0.352778,0,0,0.352778,-1.23225,-0.703483)">
        <g
           id="g31"
           transform="translate(9.550561,3.6659999)">
          <path
             d="m 3.171875,-0.828125 c 0,-0.5 -0.421875,-0.84375 -0.828125,-0.84375 C 1.84375,-1.671875 1.5,-1.25 1.5,-0.84375 1.5,-0.34375 1.90625,0 2.328125,0 c 0.5,0 0.84375,-0.40625 0.84375,-0.828125 z m 0,0"
             id="path30" />
        </g>
      </g>
      <g
         fill="#000000"
         fill-opacity="1"
         id="g34"
         transform="matrix(0.352778,0,0,0.352778,-1.23225,-0.703483)">
        <g
           id="g33"
           transform="translate(17.090906,3.6659999)">
          <path
             d="m 3.171875,-0.828125 c 0,-0.5 -0.421875,-0.84375 -0.828125,-0.84375 C 1.84375,-1.671875 1.5,-1.25 1.5,-0.84375 1.5,-0.34375 1.90625,0 2.328125,0 c 0.5,0 0.84375,-0.40625 0.84375,-0.828125 z m 0,0"
             id="path32" />
        </g>
      </g>
    </g>
    <text
       xml:space="preserve"
       transform="scale(0.26458333)"
       id="text35"
       style="font-style:normal;font-variant:normal;font-weight:normal;font-stretch:normal;font-size:21.3333px;font-family:Sans;-inkscape-font-specification:'Sans, Normal';font-variant-ligatures:normal;font-variant-caps:normal;font-variant-numeric:normal;font-variant-east-asian:normal;white-space:pre;shape-inside:url(#rect35);display:inline;fill:#000000;fill-opacity:1;stroke:#000000;stroke-width:1.37953;stroke-linecap:square;stroke-linejoin:bevel;stroke-dasharray:none;stroke-dashoffset:0;paint-order:stroke fill markers" />
    <g
       inkscape:label=""
       transform="translate(43.174459,161.48211)"
       id="g36">
      <g
         fill="#000000"
         fill-opacity="1"
         id="g3"
         transform="matrix(0.352778,0,0,0.352778,-0.907036,-0.649773)">
        <g
           id="use2"
           transform="translate(1.993,8.1700001)">
          <path
             d="m 6.640625,-3.625 c 0,-1.390625 -0.78125,-2.703125 -2.3125,-2.703125 -1.875,0 -3.75,2.046875 -3.75,4.09375 0,1.25 0.765625,2.375 2.234375,2.375 0.890625,0 1.953125,-0.34375 2.96875,-1.203125 0.203125,0.796875 0.640625,1.203125 1.265625,1.203125 0.765625,0 1.15625,-0.796875 1.15625,-0.984375 0,-0.125 -0.09375,-0.125 -0.140625,-0.125 -0.109375,0 -0.125,0.03125 -0.171875,0.15625 -0.125,0.359375 -0.453125,0.671875 -0.8125,0.671875 -0.4375,0 -0.4375,-0.921875 -0.4375,-1.796875 1.46875,-1.75 1.8125,-3.5625 1.8125,-3.578125 0,-0.125 -0.125,-0.125 -0.15625,-0.125 -0.140625,0 -0.15625,0.046875 -0.203125,0.3125 -0.1875,0.625 -0.5625,1.75 -1.453125,2.921875 z m -0.90625,2.21875 C 4.46875,-0.265625 3.34375,-0.140625 2.84375,-0.140625 c -1.015625,0 -1.3125,-0.90625 -1.3125,-1.578125 0,-0.625 0.3125,-2.078125 0.765625,-2.875 0.59375,-1 1.390625,-1.4375 2.03125,-1.4375 1.390625,0 1.390625,1.8125 1.390625,3.015625 0,0.359375 -0.015625,0.734375 -0.015625,1.09375 0,0.28125 0.015625,0.359375 0.03125,0.515625 z m 0,0"
             id="path4" />
        </g>
      </g>
      <g
         fill="#000000"
         fill-opacity="1"
         id="g4"
         transform="matrix(0.352778,0,0,0.352778,-0.907036,-0.649773)">
        <g
           id="use3"
           transform="translate(10.927,10.321)">
          <path
             d="m 2.9375,-6.375 c 0,-0.25 0,-0.265625 -0.234375,-0.265625 C 2.078125,-6 1.203125,-6 0.890625,-6 v 0.3125 c 0.203125,0 0.78125,0 1.296875,-0.265625 v 5.171875 c 0,0.359375 -0.03125,0.46875 -0.921875,0.46875 h -0.3125 V 0 c 0.34375,-0.03125 1.203125,-0.03125 1.609375,-0.03125 0.390625,0 1.265625,0 1.609375,0.03125 v -0.3125 h -0.3125 c -0.90625,0 -0.921875,-0.109375 -0.921875,-0.46875 z m 0,0"
             id="path5" />
        </g>
      </g>
    </g>
    <g
       inkscape:label=""
       transform="translate(103.25675,146.83446)"
       id="g41">
      <g
         fill="#000000"
         fill-opacity="1"
         id="g38"
         transform="matrix(0.352778,0,0,0.352778,-0.907036,-0.649773)">
        <g
           id="g37"
           transform="translate(1.993,8.1700001)">
          <path
             d="m 6.640625,-3.625 c 0,-1.390625 -0.78125,-2.703125 -2.3125,-2.703125 -1.875,0 -3.75,2.046875 -3.75,4.09375 0,1.25 0.765625,2.375 2.234375,2.375 0.890625,0 1.953125,-0.34375 2.96875,-1.203125 0.203125,0.796875 0.640625,1.203125 1.265625,1.203125 0.765625,0 1.15625,-0.796875 1.15625,-0.984375 0,-0.125 -0.09375,-0.125 -0.140625,-0.125 -0.109375,0 -0.125,0.03125 -0.171875,0.15625 -0.125,0.359375 -0.453125,0.671875 -0.8125,0.671875 -0.4375,0 -0.4375,-0.921875 -0.4375,-1.796875 1.46875,-1.75 1.8125,-3.5625 1.8125,-3.578125 0,-0.125 -0.125,-0.125 -0.15625,-0.125 -0.140625,0 -0.15625,0.046875 -0.203125,0.3125 -0.1875,0.625 -0.5625,1.75 -1.453125,2.921875 z m -0.90625,2.21875 C 4.46875,-0.265625 3.34375,-0.140625 2.84375,-0.140625 c -1.015625,0 -1.3125,-0.90625 -1.3125,-1.578125 0,-0.625 0.3125,-2.078125 0.765625,-2.875 0.59375,-1 1.390625,-1.4375 2.03125,-1.4375 1.390625,0 1.390625,1.8125 1.390625,3.015625 0,0.359375 -0.015625,0.734375 -0.015625,1.09375 0,0.28125 0.015625,0.359375 0.03125,0.515625 z m 0,0"
             id="path36" />
        </g>
      </g>
      <g
         fill="#000000"
         fill-opacity="1"
         id="g40"
         transform="matrix(0.352778,0,0,0.352778,-0.907036,-0.649773)">
        <g
           id="g39"
           transform="translate(10.927,10.321)">
          <path
             d="m 1.265625,-0.765625 1.0625,-1.03125 c 1.546875,-1.375 2.140625,-1.90625 2.140625,-2.90625 0,-1.140625 -0.890625,-1.9375 -2.109375,-1.9375 -1.125,0 -1.859375,0.921875 -1.859375,1.8125 0,0.546875 0.5,0.546875 0.53125,0.546875 0.171875,0 0.515625,-0.109375 0.515625,-0.53125 0,-0.25 -0.1875,-0.515625 -0.53125,-0.515625 -0.078125,0 -0.09375,0 -0.125,0.015625 0.21875,-0.65625 0.765625,-1.015625 1.34375,-1.015625 0.90625,0 1.328125,0.8125 1.328125,1.625 C 3.5625,-3.90625 3.078125,-3.125 2.515625,-2.5 l -1.90625,2.125 C 0.5,-0.265625 0.5,-0.234375 0.5,0 H 4.203125 L 4.46875,-1.734375 H 4.234375 C 4.171875,-1.4375 4.109375,-1 4,-0.84375 3.9375,-0.765625 3.28125,-0.765625 3.0625,-0.765625 Z m 0,0"
             id="path38" />
        </g>
      </g>
    </g>
    <g
       inkscape:label=""
       transform="translate(172.77972,151.93883)"
       id="g46">
      <g
         fill="#000000"
         fill-opacity="1"
         id="g43"
         transform="matrix(0.352778,0,0,0.352778,-0.907036,-0.64942)">
        <g
           id="g42"
           transform="translate(1.993,8.1689997)">
          <path
             d="m 6.640625,-3.625 c 0,-1.390625 -0.78125,-2.703125 -2.3125,-2.703125 -1.875,0 -3.75,2.046875 -3.75,4.09375 0,1.25 0.765625,2.375 2.234375,2.375 0.890625,0 1.953125,-0.34375 2.96875,-1.203125 0.203125,0.796875 0.640625,1.203125 1.265625,1.203125 0.765625,0 1.15625,-0.796875 1.15625,-0.984375 0,-0.125 -0.09375,-0.125 -0.140625,-0.125 -0.109375,0 -0.125,0.03125 -0.171875,0.15625 -0.125,0.359375 -0.453125,0.671875 -0.8125,0.671875 -0.4375,0 -0.4375,-0.921875 -0.4375,-1.796875 1.46875,-1.75 1.8125,-3.5625 1.8125,-3.578125 0,-0.125 -0.125,-0.125 -0.15625,-0.125 -0.140625,0 -0.15625,0.046875 -0.203125,0.3125 -0.1875,0.625 -0.5625,1.75 -1.453125,2.921875 z m -0.90625,2.21875 C 4.46875,-0.265625 3.34375,-0.140625 2.84375,-0.140625 c -1.015625,0 -1.3125,-0.90625 -1.3125,-1.578125 0,-0.625 0.3125,-2.078125 0.765625,-2.875 0.59375,-1 1.390625,-1.4375 2.03125,-1.4375 1.390625,0 1.390625,1.8125 1.390625,3.015625 0,0.359375 -0.015625,0.734375 -0.015625,1.09375 0,0.28125 0.015625,0.359375 0.03125,0.515625 z m 0,0"
             id="path41" />
        </g>
      </g>
      <g
         fill="#000000"
         fill-opacity="1"
         id="g45"
         transform="matrix(0.352778,0,0,0.352778,-0.907036,-0.64942)">
        <g
           id="g44"
           transform="translate(10.927,10.321)">
          <path
             d="M 4.6875,-3.765625 C 4.703125,-3.8125 4.71875,-3.875 4.71875,-3.9375 c 0,-0.171875 -0.109375,-0.265625 -0.28125,-0.265625 -0.09375,0 -0.375,0.0625 -0.40625,0.421875 -0.1875,-0.359375 -0.53125,-0.625 -0.9375,-0.625 -1.125,0 -2.359375,1.390625 -2.359375,2.828125 0,0.984375 0.59375,1.578125 1.3125,1.578125 0.59375,0 1.0625,-0.46875 1.15625,-0.578125 L 3.21875,-0.5625 C 3.015625,0.3125 2.890625,0.734375 2.890625,0.75 2.84375,0.84375 2.515625,1.828125 1.453125,1.828125 1.265625,1.828125 0.9375,1.8125 0.65625,1.71875 0.953125,1.640625 1.0625,1.375 1.0625,1.203125 c 0,-0.15625 -0.109375,-0.34375 -0.375,-0.34375 -0.21875,0 -0.53125,0.171875 -0.53125,0.578125 0,0.40625 0.359375,0.609375 1.3125,0.609375 1.25,0 1.96875,-0.78125 2.125,-1.375 z M 3.40625,-1.28125 C 3.34375,-1.015625 3.109375,-0.765625 2.890625,-0.578125 2.6875,-0.40625 2.375,-0.21875 2.078125,-0.21875 c -0.5,0 -0.640625,-0.515625 -0.640625,-0.921875 0,-0.46875 0.28125,-1.65625 0.5625,-2.15625 C 2.265625,-3.78125 2.6875,-4.1875 3.109375,-4.1875 c 0.65625,0 0.796875,0.8125 0.796875,0.859375 0,0.046875 -0.015625,0.109375 -0.03125,0.140625 z m 0,0"
             id="path43" />
        </g>
      </g>
    </g>
    <g
       inkscape:label=""
       transform="translate(167.32935,124.23077)"
       id="g51">
      <g
         fill="#000000"
         fill-opacity="1"
         id="g48"
         transform="matrix(0.352778,0,0,0.352778,-0.849425,-0.651095)">
        <g
           id="g47"
           transform="translate(1.993,11.955)">
          <path
             d="m 8.125,-8.34375 c 0,-0.859375 -0.734375,-1.765625 -2.046875,-1.765625 -1.84375,0 -3.015625,2.265625 -3.390625,3.75 l -2.265625,9 C 0.390625,2.75 0.46875,2.78125 0.546875,2.78125 c 0.09375,0 0.171875,-0.015625 0.1875,-0.078125 l 1,-4.015625 C 1.875,-0.515625 2.671875,0.140625 3.515625,0.140625 5.5625,0.140625 7.5,-1.46875 7.5,-3.59375 7.5,-4.140625 7.375,-4.6875 7.078125,-5.15625 6.90625,-5.421875 6.6875,-5.625 6.453125,-5.796875 7.484375,-6.34375 8.125,-7.21875 8.125,-8.34375 Z m -2.5,2.53125 c -0.234375,0.09375 -0.46875,0.125 -0.734375,0.125 -0.203125,0 -0.390625,0 -0.640625,-0.078125 0.140625,-0.09375 0.359375,-0.125 0.65625,-0.125 0.25,0 0.515625,0.03125 0.71875,0.078125 z m 1.75,-2.671875 c 0,0.796875 -0.390625,1.9375 -1.328125,2.46875 C 5.78125,-6.109375 5.40625,-6.1875 5.09375,-6.1875 c -0.296875,0 -1.15625,-0.015625 -1.15625,0.4375 0,0.390625 0.78125,0.34375 1.03125,0.34375 0.359375,0 0.703125,-0.09375 1.046875,-0.1875 0.453125,0.375 0.65625,0.859375 0.65625,1.578125 0,0.828125 -0.234375,1.5 -0.5,2.125 -0.484375,1.0625 -1.59375,1.75 -2.59375,1.75 C 2.53125,-0.140625 2,-0.96875 2,-1.953125 c 0,-0.125 0,-0.3125 0.046875,-0.53125 L 2.984375,-6.25 c 0.46875,-1.890625 1.671875,-3.578125 3.0625,-3.578125 1.03125,0 1.328125,0.71875 1.328125,1.34375 z m 0,0"
             id="path46" />
        </g>
      </g>
      <g
         fill="#000000"
         fill-opacity="1"
         id="g50"
         transform="matrix(0.352778,0,0,0.352778,-0.849425,-0.651095)">
        <g
           id="g49"
           transform="translate(9.9230003,14.107)">
          <path
             d="M 4.6875,-3.765625 C 4.703125,-3.8125 4.71875,-3.875 4.71875,-3.9375 c 0,-0.171875 -0.109375,-0.265625 -0.28125,-0.265625 -0.09375,0 -0.375,0.0625 -0.40625,0.421875 -0.1875,-0.359375 -0.53125,-0.625 -0.9375,-0.625 -1.125,0 -2.359375,1.390625 -2.359375,2.828125 0,0.984375 0.59375,1.578125 1.3125,1.578125 0.59375,0 1.0625,-0.46875 1.15625,-0.578125 L 3.21875,-0.5625 C 3.015625,0.3125 2.890625,0.734375 2.890625,0.75 2.84375,0.84375 2.515625,1.828125 1.453125,1.828125 1.265625,1.828125 0.9375,1.8125 0.65625,1.71875 0.953125,1.640625 1.0625,1.375 1.0625,1.203125 c 0,-0.15625 -0.109375,-0.34375 -0.375,-0.34375 -0.21875,0 -0.53125,0.171875 -0.53125,0.578125 0,0.40625 0.359375,0.609375 1.3125,0.609375 1.25,0 1.96875,-0.78125 2.125,-1.375 z M 3.40625,-1.28125 C 3.34375,-1.015625 3.109375,-0.765625 2.890625,-0.578125 2.6875,-0.40625 2.375,-0.21875 2.078125,-0.21875 c -0.5,0 -0.640625,-0.515625 -0.640625,-0.921875 0,-0.46875 0.28125,-1.65625 0.5625,-2.15625 C 2.265625,-3.78125 2.6875,-4.1875 3.109375,-4.1875 c 0.65625,0 0.796875,0.8125 0.796875,0.859375 0,0.046875 -0.015625,0.109375 -0.03125,0.140625 z m 0,0"
             id="path48" />
        </g>
      </g>
    </g>
    <g
       inkscape:label=""
       transform="translate(74.161318,131.84938)"
       id="g56">
      <g
         fill="#000000"
         fill-opacity="1"
         id="g53"
         transform="matrix(0.352778,0,0,0.352778,-0.849425,-0.651095)">
        <g
           id="g52"
           transform="translate(1.993,11.955)">
          <path
             d="m 8.125,-8.34375 c 0,-0.859375 -0.734375,-1.765625 -2.046875,-1.765625 -1.84375,0 -3.015625,2.265625 -3.390625,3.75 l -2.265625,9 C 0.390625,2.75 0.46875,2.78125 0.546875,2.78125 c 0.09375,0 0.171875,-0.015625 0.1875,-0.078125 l 1,-4.015625 C 1.875,-0.515625 2.671875,0.140625 3.515625,0.140625 5.5625,0.140625 7.5,-1.46875 7.5,-3.59375 7.5,-4.140625 7.375,-4.6875 7.078125,-5.15625 6.90625,-5.421875 6.6875,-5.625 6.453125,-5.796875 7.484375,-6.34375 8.125,-7.21875 8.125,-8.34375 Z m -2.5,2.53125 c -0.234375,0.09375 -0.46875,0.125 -0.734375,0.125 -0.203125,0 -0.390625,0 -0.640625,-0.078125 0.140625,-0.09375 0.359375,-0.125 0.65625,-0.125 0.25,0 0.515625,0.03125 0.71875,0.078125 z m 1.75,-2.671875 c 0,0.796875 -0.390625,1.9375 -1.328125,2.46875 C 5.78125,-6.109375 5.40625,-6.1875 5.09375,-6.1875 c -0.296875,0 -1.15625,-0.015625 -1.15625,0.4375 0,0.390625 0.78125,0.34375 1.03125,0.34375 0.359375,0 0.703125,-0.09375 1.046875,-0.1875 0.453125,0.375 0.65625,0.859375 0.65625,1.578125 0,0.828125 -0.234375,1.5 -0.5,2.125 -0.484375,1.0625 -1.59375,1.75 -2.59375,1.75 C 2.53125,-0.140625 2,-0.96875 2,-1.953125 c 0,-0.125 0,-0.3125 0.046875,-0.53125 L 2.984375,-6.25 c 0.46875,-1.890625 1.671875,-3.578125 3.0625,-3.578125 1.03125,0 1.328125,0.71875 1.328125,1.34375 z m 0,0"
             id="path51" />
        </g>
      </g>
      <g
         fill="#000000"
         fill-opacity="1"
         id="g55"
         transform="matrix(0.352778,0,0,0.352778,-0.849425,-0.651095)">
        <g
           id="g54"
           transform="translate(9.9230003,14.107)">
          <path
             d="m 1.265625,-0.765625 1.0625,-1.03125 c 1.546875,-1.375 2.140625,-1.90625 2.140625,-2.90625 0,-1.140625 -0.890625,-1.9375 -2.109375,-1.9375 -1.125,0 -1.859375,0.921875 -1.859375,1.8125 0,0.546875 0.5,0.546875 0.53125,0.546875 0.171875,0 0.515625,-0.109375 0.515625,-0.53125 0,-0.25 -0.1875,-0.515625 -0.53125,-0.515625 -0.078125,0 -0.09375,0 -0.125,0.015625 0.21875,-0.65625 0.765625,-1.015625 1.34375,-1.015625 0.90625,0 1.328125,0.8125 1.328125,1.625 C 3.5625,-3.90625 3.078125,-3.125 2.515625,-2.5 l -1.90625,2.125 C 0.5,-0.265625 0.5,-0.234375 0.5,0 H 4.203125 L 4.46875,-1.734375 H 4.234375 C 4.171875,-1.4375 4.109375,-1 4,-0.84375 3.9375,-0.765625 3.28125,-0.765625 3.0625,-0.765625 Z m 0,0"
             id="path53" />
        </g>
      </g>
    </g>
    <g
       inkscape:label=""
       transform="translate(28.576151,133.06789)"
       id="g61">
      <g
         fill="#000000"
         fill-opacity="1"
         id="g58"
         transform="matrix(0.352778,0,0,0.352778,-0.849425,-0.651095)">
        <g
           id="g57"
           transform="translate(1.993,11.955)">
          <path
             d="m 8.125,-8.34375 c 0,-0.859375 -0.734375,-1.765625 -2.046875,-1.765625 -1.84375,0 -3.015625,2.265625 -3.390625,3.75 l -2.265625,9 C 0.390625,2.75 0.46875,2.78125 0.546875,2.78125 c 0.09375,0 0.171875,-0.015625 0.1875,-0.078125 l 1,-4.015625 C 1.875,-0.515625 2.671875,0.140625 3.515625,0.140625 5.5625,0.140625 7.5,-1.46875 7.5,-3.59375 7.5,-4.140625 7.375,-4.6875 7.078125,-5.15625 6.90625,-5.421875 6.6875,-5.625 6.453125,-5.796875 7.484375,-6.34375 8.125,-7.21875 8.125,-8.34375 Z m -2.5,2.53125 c -0.234375,0.09375 -0.46875,0.125 -0.734375,0.125 -0.203125,0 -0.390625,0 -0.640625,-0.078125 0.140625,-0.09375 0.359375,-0.125 0.65625,-0.125 0.25,0 0.515625,0.03125 0.71875,0.078125 z m 1.75,-2.671875 c 0,0.796875 -0.390625,1.9375 -1.328125,2.46875 C 5.78125,-6.109375 5.40625,-6.1875 5.09375,-6.1875 c -0.296875,0 -1.15625,-0.015625 -1.15625,0.4375 0,0.390625 0.78125,0.34375 1.03125,0.34375 0.359375,0 0.703125,-0.09375 1.046875,-0.1875 0.453125,0.375 0.65625,0.859375 0.65625,1.578125 0,0.828125 -0.234375,1.5 -0.5,2.125 -0.484375,1.0625 -1.59375,1.75 -2.59375,1.75 C 2.53125,-0.140625 2,-0.96875 2,-1.953125 c 0,-0.125 0,-0.3125 0.046875,-0.53125 L 2.984375,-6.25 c 0.46875,-1.890625 1.671875,-3.578125 3.0625,-3.578125 1.03125,0 1.328125,0.71875 1.328125,1.34375 z m 0,0"
             id="path56" />
        </g>
      </g>
      <g
         fill="#000000"
         fill-opacity="1"
         id="g60"
         transform="matrix(0.352778,0,0,0.352778,-0.849425,-0.651095)">
        <g
           id="g59"
           transform="translate(9.9230003,14.107)">
          <path
             d="m 2.9375,-6.375 c 0,-0.25 0,-0.265625 -0.234375,-0.265625 C 2.078125,-6 1.203125,-6 0.890625,-6 v 0.3125 c 0.203125,0 0.78125,0 1.296875,-0.265625 v 5.171875 c 0,0.359375 -0.03125,0.46875 -0.921875,0.46875 h -0.3125 V 0 c 0.34375,-0.03125 1.203125,-0.03125 1.609375,-0.03125 0.390625,0 1.265625,0 1.609375,0.03125 v -0.3125 h -0.3125 c -0.90625,0 -0.921875,-0.109375 -0.921875,-0.46875 z m 0,0"
             id="path58" />
        </g>
      </g>
    </g>
  </g>
</svg>
